<svg width="159" height="53" viewBox="0 0 159 53" fill="none" xmlns="http://www.w3.org/2000/svg">
<path id="&#60;h1&#62;" d="M25.418 52.8423L0.735352 32.0415L25.418 11.2773L31.1309 17.0635L12.9668 31.9683L31.1309 47.0562L25.418 52.8423ZM65.5181 52V27.7568C65.5181 23.6797 64.0044 21.6411 60.9771 21.6411C59.4634 21.6411 58.0107 22.2515 56.6191 23.4722C55.252 24.6929 53.7993 26.353 52.2612 28.4526V52H43.3257V0.254395H52.2612V12.9985L51.8218 19.7368C52.5786 18.8335 53.3477 18.0278 54.1289 17.3198C54.9102 16.5874 55.7524 15.9771 56.6558 15.4888C57.5591 15.0005 58.5356 14.6343 59.5854 14.3901C60.6353 14.1216 61.7949 13.9873 63.0645 13.9873C64.9688 13.9873 66.6289 14.3047 68.0449 14.9395C69.4609 15.5498 70.645 16.4287 71.5972 17.5762C72.5493 18.6992 73.2573 20.0664 73.7212 21.6777C74.2095 23.2646 74.4536 25.0469 74.4536 27.0244V52H65.5181ZM85.0371 52V44.0532H97.2319V13.2915L86.6118 19.1509L83.6821 11.8633L98.8799 3.84326H106.387V44.0532H116.897V52H85.0371ZM133.523 11.2773L158.206 32.0415L133.523 52.8423L127.847 47.0562L145.975 32.1147L127.847 17.0635L133.523 11.2773Z" fill="#2961B0"/>
</svg>
