<svg width="144" height="68" viewBox="0 0 144 68" fill="none" xmlns="http://www.w3.org/2000/svg">
<path id="&#60;p&#62;" d="M30.8594 51.0332L0.582031 25.5176L30.8594 0.046875L37.8672 7.14453L15.5859 25.4277L37.8672 43.9355L30.8594 51.0332ZM93.8848 26.3711C93.8848 30.5638 93.2858 34.1875 92.0879 37.2422C90.9199 40.2969 89.2728 42.8424 87.1465 44.8789C85.0501 46.8854 82.5645 48.3828 79.6895 49.3711C76.8145 50.3294 73.6849 50.8086 70.3008 50.8086C69.1628 50.8086 68.0247 50.7337 66.8867 50.584C65.7487 50.4342 64.7155 50.2396 63.7871 50V67.834H52.8262V4.35938H62.3047L62.5742 11.0977C63.5026 9.92969 64.4609 8.86654 65.4492 7.9082C66.4674 6.94987 67.5605 6.14128 68.7285 5.48242C69.8965 4.79362 71.1543 4.26953 72.502 3.91016C73.8496 3.55078 75.362 3.37109 77.0391 3.37109C79.7344 3.37109 82.1302 3.91016 84.2266 4.98828C86.3229 6.06641 88.0749 7.60872 89.4824 9.61523C90.9199 11.5918 92.013 14.0026 92.7617 16.8477C93.5104 19.6628 93.8848 22.8372 93.8848 26.3711ZM82.3848 26.8203C82.3848 24.3047 82.2051 22.1634 81.8457 20.3965C81.4863 18.6296 80.9622 17.1771 80.2734 16.0391C79.6146 14.901 78.791 14.0775 77.8027 13.5684C76.8444 13.0293 75.7363 12.7598 74.4785 12.7598C72.6217 12.7598 70.8398 13.5085 69.1328 15.0059C67.4557 16.5033 65.6738 18.5397 63.7871 21.1152V41.0605C64.6556 41.39 65.7188 41.6595 66.9766 41.8691C68.2643 42.0788 69.5671 42.1836 70.8848 42.1836C72.6217 42.1836 74.194 41.8242 75.6016 41.1055C77.0391 40.3867 78.252 39.3685 79.2402 38.0508C80.2585 36.7331 81.0371 35.1309 81.5762 33.2441C82.1152 31.3275 82.3848 29.1862 82.3848 26.8203ZM112.887 0.046875L143.164 25.5176L112.887 51.0332L105.924 43.9355L128.16 25.6074L105.924 7.14453L112.887 0.046875Z" fill="#13E034"/>
</svg>
