<svg width="173" height="60" viewBox="0 0 173 60" fill="none" xmlns="http://www.w3.org/2000/svg">
<path id="&#60;/h1&#62;" d="M25.418 52.8423L0.735352 32.0415L25.418 11.2773L31.1309 17.0635L12.9668 31.9683L31.1309 47.0562L25.418 52.8423ZM42.8013 59.8735H34.1221L59.6836 0.254395H68.3994L42.8013 59.8735ZM93.2534 52V27.7568C93.2534 23.6797 91.7397 21.6411 88.7124 21.6411C87.1987 21.6411 85.7461 22.2515 84.3545 23.4722C82.9873 24.6929 81.5347 26.353 79.9966 28.4526V52H71.061V0.254395H79.9966V12.9985L79.5571 19.7368C80.314 18.8335 81.083 18.0278 81.8643 17.3198C82.6455 16.5874 83.4878 15.9771 84.3911 15.4888C85.2944 15.0005 86.271 14.6343 87.3208 14.3901C88.3706 14.1216 89.5303 13.9873 90.7998 13.9873C92.7041 13.9873 94.3643 14.3047 95.7803 14.9395C97.1963 15.5498 98.3804 16.4287 99.3325 17.5762C100.285 18.6992 100.993 20.0664 101.457 21.6777C101.945 23.2646 102.189 25.0469 102.189 27.0244V52H93.2534ZM106.022 52V44.0532H118.217V13.2915L107.597 19.1509L104.667 11.8633L119.865 3.84326H127.373V44.0532H137.883V52H106.022ZM147.759 11.2773L172.441 32.0415L147.759 52.8423L142.083 47.0562L160.21 32.1147L142.083 17.0635L147.759 11.2773Z" fill="#2961B0"/>
</svg>
