<svg width="657" height="660" viewBox="0 0 657 660" fill="none" xmlns="http://www.w3.org/2000/svg">
<g id="Hero-image">
<path id="Rect-DBlue-Bottom" d="M327 525C327 508.431 340.431 495 357 495H462C478.569 495 492 508.431 492 525V630C492 646.569 478.569 660 462 660H357C340.431 660 327 646.569 327 630V525Z" fill="#2961B0"/>
<path id="Rect-Grey-Right" opacity="0.21" d="M492 360C492 343.431 505.431 330 522 330H627C643.569 330 657 343.431 657 360V465C657 481.569 643.569 495 627 495H522C505.431 495 492 481.569 492 465V360Z" fill="#2961B0"/>
<circle id="Circle-Green" cx="409.5" cy="412.5" r="74.5" fill="#13E034"/>
<path id="Rect-DBlue-Top" d="M327 195C327 178.431 340.431 165 357 165H462C478.569 165 492 178.431 492 195V300C492 316.569 478.569 330 462 330H357C340.431 330 327 316.569 327 300V195Z" fill="#2961B0"/>
<path id="Rect-Blue-Left" opacity="0.13" d="M0 195C0 178.431 13.4315 165 30 165H135C151.569 165 165 178.431 165 195V300C165 316.569 151.569 330 135 330H30C13.4315 330 0 316.569 0 300V195Z" fill="white"/>
<path id="Rect-White-Bottom" d="M165 360C165 343.431 178.431 330 195 330H300C316.569 330 330 343.431 330 360V465C330 481.569 316.569 495 300 495H195C178.431 495 165 481.569 165 465V360Z" fill="white"/>
<circle id="Circle-Turquoise" cx="247.5" cy="247.5" r="74.5" fill="#00F8CB"/>
<path id="Rect-White-Top" d="M165 30C165 13.4315 178.431 0 195 0H300C316.569 0 330 13.4315 330 30V135C330 151.569 316.569 165 300 165H195C178.431 165 165 151.569 165 135V30Z" fill="white"/>
</g>
</svg>
