<svg width="1177" height="1403" viewBox="0 0 1177 1403" fill="none" xmlns="http://www.w3.org/2000/svg" xmlns:xlink="http://www.w3.org/1999/xlink">
<path d="M911.852 430.83C965.594 497.589 969.479 625.734 936.457 723.954C904.082 822.173 835.447 890.466 746.739 959.527C658.679 1029.35 551.194 1099.18 454.069 1071.56C356.944 1043.93 270.179 918.091 227.444 761.553C184.709 605.016 185.357 417.785 262.409 344.888C340.109 271.991 493.567 314.195 623.067 337.215C752.567 360.235 857.462 364.839 911.852 430.83Z" fill="#13E034"/>
<mask id="mask0_11_38" style="mask-type:alpha" maskUnits="userSpaceOnUse" x="198" y="370" width="760" height="708">
<path d="M911.68 486.139C965.422 547.17 969.307 664.32 936.285 754.112C903.91 843.904 835.275 906.338 746.567 969.473C658.507 1033.31 551.022 1097.15 453.897 1071.89C356.773 1046.64 270.007 931.592 227.273 788.486C184.538 645.38 185.185 474.214 262.238 407.571C339.938 340.929 493.395 379.511 622.895 400.556C752.395 421.601 857.29 425.81 911.68 486.139Z" fill="#13E034"/>
</mask>
<g mask="url(#mask0_11_38)">
<rect x="901" y="414" width="963" height="735" transform="rotate(90 901 414)" fill="url(#pattern0)"/>
</g>
<defs>
<pattern id="pattern0" patternContentUnits="objectBoundingBox" width="1" height="1">
<use xlink:href="#image0_11_38" transform="translate(-0.00882658) scale(0.00127207 0.00166667)"/>
</pattern>
<image id="image0_11_38" width="800" height="600" xlink:href=""/>
</defs>
</svg>
