<svg width="707" height="430" viewBox="0 0 707 430" fill="none" xmlns="http://www.w3.org/2000/svg">
<g id="Languages">
<path id="HTML" d="M92.83 303.602V338H84.451V323.839H71.417V338H63.038V303.602H71.417V317.077H84.451V303.602H92.83ZM123.624 303.602V310.315H114.51V338H106.131V310.315H97.0168V303.602H123.624ZM166.784 303.602V338H158.405V317.371L150.712 338H143.95L136.208 317.322V338H127.829V303.602H137.727L147.38 327.416L156.935 303.602H166.784ZM181.188 331.532H192.164V338H172.809V303.602H181.188V331.532Z" fill="#D2DEEE"/>
<path id="CSS" d="M448.155 150.68C448.155 148.253 448.68 146.095 449.73 144.205C450.78 142.292 452.238 140.81 454.105 139.76C455.995 138.687 458.13 138.15 460.51 138.15C463.427 138.15 465.923 138.92 468 140.46C470.077 142 471.465 144.1 472.165 146.76H465.585C465.095 145.733 464.395 144.952 463.485 144.415C462.598 143.878 461.583 143.61 460.44 143.61C458.597 143.61 457.103 144.252 455.96 145.535C454.817 146.818 454.245 148.533 454.245 150.68C454.245 152.827 454.817 154.542 455.96 155.825C457.103 157.108 458.597 157.75 460.44 157.75C461.583 157.75 462.598 157.482 463.485 156.945C464.395 156.408 465.095 155.627 465.585 154.6H472.165C471.465 157.26 470.077 159.36 468 160.9C465.923 162.417 463.427 163.175 460.51 163.175C458.13 163.175 455.995 162.65 454.105 161.6C452.238 160.527 450.78 159.045 449.73 157.155C448.68 155.265 448.155 153.107 448.155 150.68ZM484.72 163.245C482.923 163.245 481.313 162.953 479.89 162.37C478.467 161.787 477.323 160.923 476.46 159.78C475.62 158.637 475.177 157.26 475.13 155.65H481.5C481.593 156.56 481.908 157.26 482.445 157.75C482.982 158.217 483.682 158.45 484.545 158.45C485.432 158.45 486.132 158.252 486.645 157.855C487.158 157.435 487.415 156.863 487.415 156.14C487.415 155.533 487.205 155.032 486.785 154.635C486.388 154.238 485.887 153.912 485.28 153.655C484.697 153.398 483.857 153.107 482.76 152.78C481.173 152.29 479.878 151.8 478.875 151.31C477.872 150.82 477.008 150.097 476.285 149.14C475.562 148.183 475.2 146.935 475.2 145.395C475.2 143.108 476.028 141.323 477.685 140.04C479.342 138.733 481.5 138.08 484.16 138.08C486.867 138.08 489.048 138.733 490.705 140.04C492.362 141.323 493.248 143.12 493.365 145.43H486.89C486.843 144.637 486.552 144.018 486.015 143.575C485.478 143.108 484.79 142.875 483.95 142.875C483.227 142.875 482.643 143.073 482.2 143.47C481.757 143.843 481.535 144.392 481.535 145.115C481.535 145.908 481.908 146.527 482.655 146.97C483.402 147.413 484.568 147.892 486.155 148.405C487.742 148.942 489.025 149.455 490.005 149.945C491.008 150.435 491.872 151.147 492.595 152.08C493.318 153.013 493.68 154.215 493.68 155.685C493.68 157.085 493.318 158.357 492.595 159.5C491.895 160.643 490.868 161.553 489.515 162.23C488.162 162.907 486.563 163.245 484.72 163.245ZM506.253 163.245C504.457 163.245 502.847 162.953 501.423 162.37C500 161.787 498.857 160.923 497.993 159.78C497.153 158.637 496.71 157.26 496.663 155.65H503.033C503.127 156.56 503.442 157.26 503.978 157.75C504.515 158.217 505.215 158.45 506.078 158.45C506.965 158.45 507.665 158.252 508.178 157.855C508.692 157.435 508.948 156.863 508.948 156.14C508.948 155.533 508.738 155.032 508.318 154.635C507.922 154.238 507.42 153.912 506.813 153.655C506.23 153.398 505.39 153.107 504.293 152.78C502.707 152.29 501.412 151.8 500.408 151.31C499.405 150.82 498.542 150.097 497.818 149.14C497.095 148.183 496.733 146.935 496.733 145.395C496.733 143.108 497.562 141.323 499.218 140.04C500.875 138.733 503.033 138.08 505.693 138.08C508.4 138.08 510.582 138.733 512.238 140.04C513.895 141.323 514.782 143.12 514.898 145.43H508.423C508.377 144.637 508.085 144.018 507.548 143.575C507.012 143.108 506.323 142.875 505.483 142.875C504.76 142.875 504.177 143.073 503.733 143.47C503.29 143.843 503.068 144.392 503.068 145.115C503.068 145.908 503.442 146.527 504.188 146.97C504.935 147.413 506.102 147.892 507.688 148.405C509.275 148.942 510.558 149.455 511.538 149.945C512.542 150.435 513.405 151.147 514.128 152.08C514.852 153.013 515.213 154.215 515.213 155.685C515.213 157.085 514.852 158.357 514.128 159.5C513.428 160.643 512.402 161.553 511.048 162.23C509.695 162.907 508.097 163.245 506.253 163.245Z" fill="#4576BA"/>
<path id="JavaScript" d="M24.096 104.304V127.248C24.096 130.8 23.088 133.536 21.072 135.456C19.088 137.376 16.4 138.336 13.008 138.336C9.456 138.336 6.608 137.328 4.464 135.312C2.32 133.296 1.248 130.432 1.248 126.72H9.408C9.408 128.128 9.696 129.2 10.272 129.936C10.848 130.64 11.68 130.992 12.768 130.992C13.76 130.992 14.528 130.672 15.072 130.032C15.616 129.392 15.888 128.464 15.888 127.248V104.304H24.096ZM29.094 124.56C29.094 121.808 29.606 119.392 30.63 117.312C31.686 115.232 33.11 113.632 34.902 112.512C36.694 111.392 38.694 110.832 40.902 110.832C42.79 110.832 44.438 111.216 45.846 111.984C47.286 112.752 48.39 113.76 49.158 115.008V111.216H57.366V138H49.158V134.208C48.358 135.456 47.238 136.464 45.798 137.232C44.39 138 42.742 138.384 40.854 138.384C38.678 138.384 36.694 137.824 34.902 136.704C33.11 135.552 31.686 133.936 30.63 131.856C29.606 129.744 29.094 127.312 29.094 124.56ZM49.158 124.608C49.158 122.56 48.582 120.944 47.43 119.76C46.31 118.576 44.934 117.984 43.302 117.984C41.67 117.984 40.278 118.576 39.126 119.76C38.006 120.912 37.446 122.512 37.446 124.56C37.446 126.608 38.006 128.24 39.126 129.456C40.278 130.64 41.67 131.232 43.302 131.232C44.934 131.232 46.31 130.64 47.43 129.456C48.582 128.272 49.158 126.656 49.158 124.608ZM75.3521 130.32L81.1601 111.216H89.8961L80.3921 138H70.2641L60.7601 111.216H69.5441L75.3521 130.32ZM91.719 124.56C91.719 121.808 92.231 119.392 93.255 117.312C94.311 115.232 95.735 113.632 97.527 112.512C99.319 111.392 101.319 110.832 103.527 110.832C105.415 110.832 107.063 111.216 108.471 111.984C109.911 112.752 111.015 113.76 111.783 115.008V111.216H119.991V138H111.783V134.208C110.983 135.456 109.863 136.464 108.423 137.232C107.015 138 105.367 138.384 103.479 138.384C101.303 138.384 99.319 137.824 97.527 136.704C95.735 135.552 94.311 133.936 93.255 131.856C92.231 129.744 91.719 127.312 91.719 124.56ZM111.783 124.608C111.783 122.56 111.207 120.944 110.055 119.76C108.935 118.576 107.559 117.984 105.927 117.984C104.295 117.984 102.903 118.576 101.751 119.76C100.631 120.912 100.071 122.512 100.071 124.56C100.071 126.608 100.631 128.24 101.751 129.456C102.903 130.64 104.295 131.232 105.927 131.232C107.559 131.232 108.935 130.64 110.055 129.456C111.207 128.272 111.783 126.656 111.783 124.608ZM138.121 138.336C135.657 138.336 133.449 137.936 131.497 137.136C129.545 136.336 127.977 135.152 126.793 133.584C125.641 132.016 125.033 130.128 124.969 127.92H133.705C133.833 129.168 134.265 130.128 135.001 130.8C135.737 131.44 136.697 131.76 137.881 131.76C139.097 131.76 140.057 131.488 140.761 130.944C141.465 130.368 141.817 129.584 141.817 128.592C141.817 127.76 141.529 127.072 140.953 126.528C140.409 125.984 139.721 125.536 138.889 125.184C138.089 124.832 136.937 124.432 135.433 123.984C133.257 123.312 131.481 122.64 130.105 121.968C128.729 121.296 127.545 120.304 126.553 118.992C125.561 117.68 125.065 115.968 125.065 113.856C125.065 110.72 126.201 108.272 128.473 106.512C130.745 104.72 133.705 103.824 137.353 103.824C141.065 103.824 144.057 104.72 146.329 106.512C148.601 108.272 149.817 110.736 149.977 113.904H141.097C141.033 112.816 140.633 111.968 139.897 111.36C139.161 110.72 138.217 110.4 137.065 110.4C136.073 110.4 135.273 110.672 134.665 111.216C134.057 111.728 133.753 112.48 133.753 113.472C133.753 114.56 134.265 115.408 135.289 116.016C136.313 116.624 137.913 117.28 140.089 117.984C142.265 118.72 144.025 119.424 145.369 120.096C146.745 120.768 147.929 121.744 148.921 123.024C149.913 124.304 150.409 125.952 150.409 127.968C150.409 129.888 149.913 131.632 148.921 133.2C147.961 134.768 146.553 136.016 144.697 136.944C142.841 137.872 140.649 138.336 138.121 138.336ZM153.828 124.608C153.828 121.824 154.388 119.392 155.508 117.312C156.66 115.232 158.244 113.632 160.26 112.512C162.308 111.392 164.644 110.832 167.268 110.832C170.628 110.832 173.428 111.712 175.668 113.472C177.94 115.232 179.428 117.712 180.132 120.912H171.396C170.66 118.864 169.236 117.84 167.124 117.84C165.62 117.84 164.42 118.432 163.524 119.616C162.628 120.768 162.18 122.432 162.18 124.608C162.18 126.784 162.628 128.464 163.524 129.648C164.42 130.8 165.62 131.376 167.124 131.376C169.236 131.376 170.66 130.352 171.396 128.304H180.132C179.428 131.44 177.94 133.904 175.668 135.696C173.396 137.488 170.596 138.384 167.268 138.384C164.644 138.384 162.308 137.824 160.26 136.704C158.244 135.584 156.66 133.984 155.508 131.904C154.388 129.824 153.828 127.392 153.828 124.608ZM192.731 115.68C193.691 114.208 194.891 113.056 196.331 112.224C197.771 111.36 199.371 110.928 201.131 110.928V119.616H198.875C196.827 119.616 195.291 120.064 194.267 120.96C193.243 121.824 192.731 123.36 192.731 125.568V138H184.523V111.216H192.731V115.68ZM209.182 108.432C207.742 108.432 206.558 108.016 205.63 107.184C204.734 106.32 204.286 105.264 204.286 104.016C204.286 102.736 204.734 101.68 205.63 100.848C206.558 99.984 207.742 99.552 209.182 99.552C210.59 99.552 211.742 99.984 212.638 100.848C213.566 101.68 214.03 102.736 214.03 104.016C214.03 105.264 213.566 106.32 212.638 107.184C211.742 108.016 210.59 108.432 209.182 108.432ZM213.262 111.216V138H205.054V111.216H213.262ZM227.418 115.008C228.218 113.76 229.322 112.752 230.73 111.984C232.138 111.216 233.786 110.832 235.674 110.832C237.882 110.832 239.882 111.392 241.674 112.512C243.466 113.632 244.874 115.232 245.898 117.312C246.954 119.392 247.482 121.808 247.482 124.56C247.482 127.312 246.954 129.744 245.898 131.856C244.874 133.936 243.466 135.552 241.674 136.704C239.882 137.824 237.882 138.384 235.674 138.384C233.818 138.384 232.17 138 230.73 137.232C229.322 136.464 228.218 135.472 227.418 134.256V150.768H219.21V111.216H227.418V115.008ZM239.13 124.56C239.13 122.512 238.554 120.912 237.402 119.76C236.282 118.576 234.89 117.984 233.226 117.984C231.594 117.984 230.202 118.576 229.05 119.76C227.93 120.944 227.37 122.56 227.37 124.608C227.37 126.656 227.93 128.272 229.05 129.456C230.202 130.64 231.594 131.232 233.226 131.232C234.858 131.232 236.25 130.64 237.402 129.456C238.554 128.24 239.13 126.608 239.13 124.56ZM266.717 131.04V138H262.541C259.565 138 257.245 137.28 255.581 135.84C253.917 134.368 253.085 131.984 253.085 128.688V118.032H249.821V111.216H253.085V104.688H261.293V111.216H266.669V118.032H261.293V128.784C261.293 129.584 261.485 130.16 261.869 130.512C262.253 130.864 262.893 131.04 263.789 131.04H266.717Z" fill="#4576BA"/>
<path id="node.js" d="M271.05 36.9C272.683 36.9 273.983 37.4333 274.95 38.5C275.933 39.55 276.425 41 276.425 42.85V51H272.175V43.425C272.175 42.4917 271.933 41.7667 271.45 41.25C270.967 40.7333 270.317 40.475 269.5 40.475C268.683 40.475 268.033 40.7333 267.55 41.25C267.067 41.7667 266.825 42.4917 266.825 43.425V51H262.55V37.05H266.825V38.9C267.258 38.2833 267.842 37.8 268.575 37.45C269.308 37.0833 270.133 36.9 271.05 36.9ZM285.746 51.2C284.379 51.2 283.146 50.9083 282.046 50.325C280.962 49.7417 280.104 48.9083 279.471 47.825C278.854 46.7417 278.546 45.475 278.546 44.025C278.546 42.5917 278.862 41.3333 279.496 40.25C280.129 39.15 280.996 38.3083 282.096 37.725C283.196 37.1417 284.429 36.85 285.796 36.85C287.162 36.85 288.396 37.1417 289.496 37.725C290.596 38.3083 291.462 39.15 292.096 40.25C292.729 41.3333 293.046 42.5917 293.046 44.025C293.046 45.4583 292.721 46.725 292.071 47.825C291.437 48.9083 290.562 49.7417 289.446 50.325C288.346 50.9083 287.112 51.2 285.746 51.2ZM285.746 47.5C286.562 47.5 287.254 47.2 287.821 46.6C288.404 46 288.696 45.1417 288.696 44.025C288.696 42.9083 288.412 42.05 287.846 41.45C287.296 40.85 286.612 40.55 285.796 40.55C284.962 40.55 284.271 40.85 283.721 41.45C283.171 42.0333 282.896 42.8917 282.896 44.025C282.896 45.1417 283.162 46 283.696 46.6C284.246 47.2 284.929 47.5 285.746 47.5ZM294.464 44C294.464 42.5667 294.73 41.3083 295.264 40.225C295.814 39.1417 296.555 38.3083 297.489 37.725C298.422 37.1417 299.464 36.85 300.614 36.85C301.53 36.85 302.364 37.0417 303.114 37.425C303.88 37.8083 304.48 38.325 304.914 38.975V32.5H309.189V51H304.914V49C304.514 49.6667 303.939 50.2 303.189 50.6C302.455 51 301.597 51.2 300.614 51.2C299.464 51.2 298.422 50.9083 297.489 50.325C296.555 49.725 295.814 48.8833 295.264 47.8C294.73 46.7 294.464 45.4333 294.464 44ZM304.914 44.025C304.914 42.9583 304.614 42.1167 304.014 41.5C303.43 40.8833 302.714 40.575 301.864 40.575C301.014 40.575 300.289 40.8833 299.689 41.5C299.105 42.1 298.814 42.9333 298.814 44C298.814 45.0667 299.105 45.9167 299.689 46.55C300.289 47.1667 301.014 47.475 301.864 47.475C302.714 47.475 303.43 47.1667 304.014 46.55C304.614 45.9333 304.914 45.0917 304.914 44.025ZM325.431 43.8C325.431 44.2 325.406 44.6167 325.356 45.05H315.681C315.748 45.9167 316.023 46.5833 316.506 47.05C317.006 47.5 317.615 47.725 318.331 47.725C319.398 47.725 320.14 47.275 320.556 46.375H325.106C324.873 47.2917 324.448 48.1167 323.831 48.85C323.231 49.5833 322.473 50.1583 321.556 50.575C320.64 50.9917 319.615 51.2 318.481 51.2C317.115 51.2 315.898 50.9083 314.831 50.325C313.765 49.7417 312.931 48.9083 312.331 47.825C311.731 46.7417 311.431 45.475 311.431 44.025C311.431 42.575 311.723 41.3083 312.306 40.225C312.906 39.1417 313.74 38.3083 314.806 37.725C315.873 37.1417 317.098 36.85 318.481 36.85C319.831 36.85 321.031 37.1333 322.081 37.7C323.131 38.2667 323.948 39.075 324.531 40.125C325.131 41.175 325.431 42.4 325.431 43.8ZM321.056 42.675C321.056 41.9417 320.806 41.3583 320.306 40.925C319.806 40.4917 319.181 40.275 318.431 40.275C317.715 40.275 317.106 40.4833 316.606 40.9C316.123 41.3167 315.823 41.9083 315.706 42.675H321.056ZM329.687 51.2C328.937 51.2 328.32 50.9833 327.837 50.55C327.37 50.1 327.137 49.55 327.137 48.9C327.137 48.2333 327.37 47.675 327.837 47.225C328.32 46.775 328.937 46.55 329.687 46.55C330.42 46.55 331.02 46.775 331.487 47.225C331.97 47.675 332.212 48.2333 332.212 48.9C332.212 49.55 331.97 50.1 331.487 50.55C331.02 50.9833 330.42 51.2 329.687 51.2ZM336.867 35.6C336.117 35.6 335.501 35.3833 335.017 34.95C334.551 34.5 334.317 33.95 334.317 33.3C334.317 32.6333 334.551 32.0833 335.017 31.65C335.501 31.2 336.117 30.975 336.867 30.975C337.601 30.975 338.201 31.2 338.667 31.65C339.151 32.0833 339.392 32.6333 339.392 33.3C339.392 33.95 339.151 34.5 338.667 34.95C338.201 35.3833 337.601 35.6 336.867 35.6ZM339.017 52.8C339.017 54.5167 338.584 55.75 337.717 56.5C336.851 57.2667 335.642 57.65 334.092 57.65H332.417V54.025H333.442C333.909 54.025 334.242 53.9333 334.442 53.75C334.642 53.5667 334.742 53.2667 334.742 52.85V37.05H339.017V52.8ZM347.766 51.2C346.549 51.2 345.466 50.9917 344.516 50.575C343.566 50.1583 342.816 49.5917 342.266 48.875C341.716 48.1417 341.408 47.325 341.341 46.425H345.566C345.616 46.9083 345.841 47.3 346.241 47.6C346.641 47.9 347.133 48.05 347.716 48.05C348.249 48.05 348.658 47.95 348.941 47.75C349.241 47.5333 349.391 47.2583 349.391 46.925C349.391 46.525 349.183 46.2333 348.766 46.05C348.349 45.85 347.674 45.6333 346.741 45.4C345.741 45.1667 344.908 44.925 344.241 44.675C343.574 44.4083 342.999 44 342.516 43.45C342.033 42.8833 341.791 42.125 341.791 41.175C341.791 40.375 342.008 39.65 342.441 39C342.891 38.3333 343.541 37.8083 344.391 37.425C345.258 37.0417 346.283 36.85 347.466 36.85C349.216 36.85 350.591 37.2833 351.591 38.15C352.608 39.0167 353.191 40.1667 353.341 41.6H349.391C349.324 41.1167 349.108 40.7333 348.741 40.45C348.391 40.1667 347.924 40.025 347.341 40.025C346.841 40.025 346.458 40.125 346.191 40.325C345.924 40.5083 345.791 40.7667 345.791 41.1C345.791 41.5 345.999 41.8 346.416 42C346.849 42.2 347.516 42.4 348.416 42.6C349.449 42.8667 350.291 43.1333 350.941 43.4C351.591 43.65 352.158 44.0667 352.641 44.65C353.141 45.2167 353.399 45.9833 353.416 46.95C353.416 47.7667 353.183 48.5 352.716 49.15C352.266 49.7833 351.608 50.2833 350.741 50.65C349.891 51.0167 348.899 51.2 347.766 51.2Z" fill="#D2DEEE"/>
<path id="C#" d="M358.597 335.632C358.597 328.075 360.232 321.353 363.502 315.467C366.772 309.508 371.314 304.894 377.127 301.624C383.013 298.281 389.662 296.61 397.074 296.61C406.157 296.61 413.933 299.008 420.4 303.804C426.867 308.6 431.191 315.14 433.371 323.424H412.879C411.353 320.227 409.173 317.792 406.339 316.121C403.578 314.45 400.417 313.614 396.856 313.614C391.115 313.614 386.465 315.612 382.904 319.609C379.343 323.606 377.563 328.947 377.563 335.632C377.563 342.317 379.343 347.658 382.904 351.655C386.465 355.652 391.115 357.65 396.856 357.65C400.417 357.65 403.578 356.814 406.339 355.143C409.173 353.472 411.353 351.037 412.879 347.84H433.371C431.191 356.124 426.867 362.664 420.4 367.46C413.933 372.183 406.157 374.545 397.074 374.545C389.662 374.545 383.013 372.91 377.127 369.64C371.314 366.297 366.772 361.683 363.502 355.797C360.232 349.911 358.597 343.189 358.597 335.632ZM515.962 326.258L512.91 340.537H525.99V357.323H509.313L505.716 374H488.276L491.873 357.323H473.779L470.182 374H452.742L456.339 357.323H440.207V340.537H459.936L462.988 326.258H447.183V309.472H466.476L469.964 293.34H487.404L483.916 309.472H502.01L505.498 293.34H522.938L519.45 309.472H532.966V326.258H515.962ZM498.522 326.258H480.428L477.376 340.537H495.47L498.522 326.258Z" fill="#4576BA"/>
<path id="Python" d="M237.656 213.152C237.656 215.104 237.208 216.896 236.312 218.528C235.416 220.128 234.04 221.424 232.184 222.416C230.328 223.408 228.024 223.904 225.272 223.904H220.184V236H211.976V202.304H225.272C227.96 202.304 230.232 202.768 232.088 203.696C233.944 204.624 235.336 205.904 236.264 207.536C237.192 209.168 237.656 211.04 237.656 213.152ZM224.648 217.376C226.216 217.376 227.384 217.008 228.152 216.272C228.92 215.536 229.304 214.496 229.304 213.152C229.304 211.808 228.92 210.768 228.152 210.032C227.384 209.296 226.216 208.928 224.648 208.928H220.184V217.376H224.648ZM269.289 209.216L252.489 248.72H243.657L249.801 235.088L238.905 209.216H248.073L254.265 225.968L260.409 209.216H269.289ZM287.185 229.04V236H283.009C280.033 236 277.713 235.28 276.049 233.84C274.385 232.368 273.553 229.984 273.553 226.688V216.032H270.289V209.216H273.553V202.688H281.761V209.216H287.137V216.032H281.761V226.784C281.761 227.584 281.953 228.16 282.337 228.512C282.721 228.864 283.361 229.04 284.257 229.04H287.185ZM308.221 208.928C311.293 208.928 313.757 209.952 315.613 212C317.469 214.016 318.397 216.8 318.397 220.352V236H310.237V221.456C310.237 219.664 309.773 218.272 308.845 217.28C307.917 216.288 306.669 215.792 305.101 215.792C303.533 215.792 302.285 216.288 301.357 217.28C300.429 218.272 299.965 219.664 299.965 221.456V236H291.757V200.48H299.965V212.816C300.797 211.632 301.933 210.688 303.373 209.984C304.813 209.28 306.429 208.928 308.221 208.928ZM336.293 236.384C333.669 236.384 331.301 235.824 329.189 234.704C327.109 233.584 325.461 231.984 324.245 229.904C323.061 227.824 322.469 225.392 322.469 222.608C322.469 219.856 323.077 217.44 324.293 215.36C325.509 213.248 327.173 211.632 329.285 210.512C331.397 209.392 333.765 208.832 336.389 208.832C339.013 208.832 341.381 209.392 343.493 210.512C345.605 211.632 347.269 213.248 348.485 215.36C349.701 217.44 350.309 219.856 350.309 222.608C350.309 225.36 349.685 227.792 348.437 229.904C347.221 231.984 345.541 233.584 343.397 234.704C341.285 235.824 338.917 236.384 336.293 236.384ZM336.293 229.28C337.861 229.28 339.189 228.704 340.277 227.552C341.397 226.4 341.957 224.752 341.957 222.608C341.957 220.464 341.413 218.816 340.325 217.664C339.269 216.512 337.957 215.936 336.389 215.936C334.789 215.936 333.461 216.512 332.405 217.664C331.349 218.784 330.821 220.432 330.821 222.608C330.821 224.752 331.333 226.4 332.357 227.552C333.413 228.704 334.725 229.28 336.293 229.28ZM370.984 208.928C374.12 208.928 376.616 209.952 378.472 212C380.36 214.016 381.304 216.8 381.304 220.352V236H373.144V221.456C373.144 219.664 372.68 218.272 371.752 217.28C370.824 216.288 369.576 215.792 368.008 215.792C366.44 215.792 365.192 216.288 364.264 217.28C363.336 218.272 362.872 219.664 362.872 221.456V236H354.664V209.216H362.872V212.768C363.704 211.584 364.824 210.656 366.232 209.984C367.64 209.28 369.224 208.928 370.984 208.928Z" fill="#D2DEEE"/>
<path id="Sass" d="M239.636 395.147C238.558 395.147 237.592 394.972 236.738 394.622C235.884 394.272 235.198 393.754 234.68 393.068C234.176 392.382 233.91 391.556 233.882 390.59H237.704C237.76 391.136 237.949 391.556 238.271 391.85C238.593 392.13 239.013 392.27 239.531 392.27C240.063 392.27 240.483 392.151 240.791 391.913C241.099 391.661 241.253 391.318 241.253 390.884C241.253 390.52 241.127 390.219 240.875 389.981C240.637 389.743 240.336 389.547 239.972 389.393C239.622 389.239 239.118 389.064 238.46 388.868C237.508 388.574 236.731 388.28 236.129 387.986C235.527 387.692 235.009 387.258 234.575 386.684C234.141 386.11 233.924 385.361 233.924 384.437C233.924 383.065 234.421 381.994 235.415 381.224C236.409 380.44 237.704 380.048 239.3 380.048C240.924 380.048 242.233 380.44 243.227 381.224C244.221 381.994 244.753 383.072 244.823 384.458H240.938C240.91 383.982 240.735 383.611 240.413 383.345C240.091 383.065 239.678 382.925 239.174 382.925C238.74 382.925 238.39 383.044 238.124 383.282C237.858 383.506 237.725 383.835 237.725 384.269C237.725 384.745 237.949 385.116 238.397 385.382C238.845 385.648 239.545 385.935 240.497 386.243C241.449 386.565 242.219 386.873 242.807 387.167C243.409 387.461 243.927 387.888 244.361 388.448C244.795 389.008 245.012 389.729 245.012 390.611C245.012 391.451 244.795 392.214 244.361 392.9C243.941 393.586 243.325 394.132 242.513 394.538C241.701 394.944 240.742 395.147 239.636 395.147ZM246.508 389.12C246.508 387.916 246.732 386.859 247.18 385.949C247.642 385.039 248.265 384.339 249.049 383.849C249.833 383.359 250.708 383.114 251.674 383.114C252.5 383.114 253.221 383.282 253.837 383.618C254.467 383.954 254.95 384.395 255.286 384.941V383.282H258.877V395H255.286V393.341C254.936 393.887 254.446 394.328 253.816 394.664C253.2 395 252.479 395.168 251.653 395.168C250.701 395.168 249.833 394.923 249.049 394.433C248.265 393.929 247.642 393.222 247.18 392.312C246.732 391.388 246.508 390.324 246.508 389.12ZM255.286 389.141C255.286 388.245 255.034 387.538 254.53 387.02C254.04 386.502 253.438 386.243 252.724 386.243C252.01 386.243 251.401 386.502 250.897 387.02C250.407 387.524 250.162 388.224 250.162 389.12C250.162 390.016 250.407 390.73 250.897 391.262C251.401 391.78 252.01 392.039 252.724 392.039C253.438 392.039 254.04 391.78 254.53 391.262C255.034 390.744 255.286 390.037 255.286 389.141ZM266.242 395.168C265.22 395.168 264.31 394.993 263.512 394.643C262.714 394.293 262.084 393.817 261.622 393.215C261.16 392.599 260.901 391.913 260.845 391.157H264.394C264.436 391.563 264.625 391.892 264.961 392.144C265.297 392.396 265.71 392.522 266.2 392.522C266.648 392.522 266.991 392.438 267.229 392.27C267.481 392.088 267.607 391.857 267.607 391.577C267.607 391.241 267.432 390.996 267.082 390.842C266.732 390.674 266.165 390.492 265.381 390.296C264.541 390.1 263.841 389.897 263.281 389.687C262.721 389.463 262.238 389.12 261.832 388.658C261.426 388.182 261.223 387.545 261.223 386.747C261.223 386.075 261.405 385.466 261.769 384.92C262.147 384.36 262.693 383.919 263.407 383.597C264.135 383.275 264.996 383.114 265.99 383.114C267.46 383.114 268.615 383.478 269.455 384.206C270.309 384.934 270.799 385.9 270.925 387.104H267.607C267.551 386.698 267.369 386.376 267.061 386.138C266.767 385.9 266.375 385.781 265.885 385.781C265.465 385.781 265.143 385.865 264.919 386.033C264.695 386.187 264.583 386.404 264.583 386.684C264.583 387.02 264.758 387.272 265.108 387.44C265.472 387.608 266.032 387.776 266.788 387.944C267.656 388.168 268.363 388.392 268.909 388.616C269.455 388.826 269.931 389.176 270.337 389.666C270.757 390.142 270.974 390.786 270.988 391.598C270.988 392.284 270.792 392.9 270.4 393.446C270.022 393.978 269.469 394.398 268.741 394.706C268.027 395.014 267.194 395.168 266.242 395.168ZM277.952 395.168C276.93 395.168 276.02 394.993 275.222 394.643C274.424 394.293 273.794 393.817 273.332 393.215C272.87 392.599 272.611 391.913 272.555 391.157H276.104C276.146 391.563 276.335 391.892 276.671 392.144C277.007 392.396 277.42 392.522 277.91 392.522C278.358 392.522 278.701 392.438 278.939 392.27C279.191 392.088 279.317 391.857 279.317 391.577C279.317 391.241 279.142 390.996 278.792 390.842C278.442 390.674 277.875 390.492 277.091 390.296C276.251 390.1 275.551 389.897 274.991 389.687C274.431 389.463 273.948 389.12 273.542 388.658C273.136 388.182 272.933 387.545 272.933 386.747C272.933 386.075 273.115 385.466 273.479 384.92C273.857 384.36 274.403 383.919 275.117 383.597C275.845 383.275 276.706 383.114 277.7 383.114C279.17 383.114 280.325 383.478 281.165 384.206C282.019 384.934 282.509 385.9 282.635 387.104H279.317C279.261 386.698 279.079 386.376 278.771 386.138C278.477 385.9 278.085 385.781 277.595 385.781C277.175 385.781 276.853 385.865 276.629 386.033C276.405 386.187 276.293 386.404 276.293 386.684C276.293 387.02 276.468 387.272 276.818 387.44C277.182 387.608 277.742 387.776 278.498 387.944C279.366 388.168 280.073 388.392 280.619 388.616C281.165 388.826 281.641 389.176 282.047 389.666C282.467 390.142 282.684 390.786 282.698 391.598C282.698 392.284 282.502 392.9 282.11 393.446C281.732 393.978 281.179 394.398 280.451 394.706C279.737 395.014 278.904 395.168 277.952 395.168Z" fill="#4576BA"/>
<path id="SQL" d="M604.54 262.455C601.203 262.455 598.213 261.913 595.57 260.83C592.927 259.747 590.803 258.143 589.2 256.02C587.64 253.897 586.817 251.34 586.73 248.35H598.56C598.733 250.04 599.318 251.34 600.315 252.25C601.312 253.117 602.612 253.55 604.215 253.55C605.862 253.55 607.162 253.182 608.115 252.445C609.068 251.665 609.545 250.603 609.545 249.26C609.545 248.133 609.155 247.202 608.375 246.465C607.638 245.728 606.707 245.122 605.58 244.645C604.497 244.168 602.937 243.627 600.9 243.02C597.953 242.11 595.548 241.2 593.685 240.29C591.822 239.38 590.218 238.037 588.875 236.26C587.532 234.483 586.86 232.165 586.86 229.305C586.86 225.058 588.398 221.743 591.475 219.36C594.552 216.933 598.56 215.72 603.5 215.72C608.527 215.72 612.578 216.933 615.655 219.36C618.732 221.743 620.378 225.08 620.595 229.37H608.57C608.483 227.897 607.942 226.748 606.945 225.925C605.948 225.058 604.67 224.625 603.11 224.625C601.767 224.625 600.683 224.993 599.86 225.73C599.037 226.423 598.625 227.442 598.625 228.785C598.625 230.258 599.318 231.407 600.705 232.23C602.092 233.053 604.258 233.942 607.205 234.895C610.152 235.892 612.535 236.845 614.355 237.755C616.218 238.665 617.822 239.987 619.165 241.72C620.508 243.453 621.18 245.685 621.18 248.415C621.18 251.015 620.508 253.377 619.165 255.5C617.865 257.623 615.958 259.313 613.445 260.57C610.932 261.827 607.963 262.455 604.54 262.455ZM660.52 269.8L654.67 261.935C652.937 262.282 651.247 262.455 649.6 262.455C645.31 262.455 641.367 261.458 637.77 259.465C634.217 257.472 631.379 254.698 629.255 251.145C627.175 247.548 626.135 243.518 626.135 239.055C626.135 234.592 627.175 230.583 629.255 227.03C631.379 223.477 634.217 220.703 637.77 218.71C641.367 216.717 645.31 215.72 649.6 215.72C653.89 215.72 657.812 216.717 661.365 218.71C664.962 220.703 667.779 223.477 669.815 227.03C671.895 230.583 672.935 234.592 672.935 239.055C672.935 242.955 672.134 246.53 670.53 249.78C668.97 252.987 666.782 255.652 663.965 257.775L673.975 269.8H660.52ZM637.51 239.055C637.51 243.085 638.594 246.313 640.76 248.74C642.97 251.123 645.917 252.315 649.6 252.315C653.24 252.315 656.144 251.102 658.31 248.675C660.52 246.248 661.625 243.042 661.625 239.055C661.625 235.025 660.52 231.818 658.31 229.435C656.144 227.008 653.24 225.795 649.6 225.795C645.917 225.795 642.97 226.987 640.76 229.37C638.594 231.753 637.51 234.982 637.51 239.055ZM690.361 253.42H704.921V262H679.246V216.37H690.361V253.42Z" fill="#D2DEEE"/>
</g>
</svg>
