<svg width="43" height="43" viewBox="0 0 43 43" fill="none" xmlns="http://www.w3.org/2000/svg">
<path fill-rule="evenodd" clip-rule="evenodd" d="M0.875001 4.32125C0.875001 3.40725 1.23809 2.53068 1.88438 1.88438C2.53068 1.23809 3.40725 0.875001 4.32125 0.875001H38.675C39.128 0.874261 39.5766 0.962869 39.9953 1.13575C40.4139 1.30863 40.7944 1.56239 41.1148 1.88251C41.4353 2.20262 41.6895 2.58279 41.8628 3.00127C42.0362 3.41974 42.1252 3.8683 42.125 4.32125V38.675C42.1255 39.128 42.0367 39.5767 41.8636 39.9954C41.6905 40.4141 41.4365 40.7945 41.1163 41.115C40.796 41.4354 40.4157 41.6895 39.9971 41.8629C39.5786 42.0362 39.1299 42.1252 38.6769 42.125H4.32125C3.86852 42.125 3.42023 42.0358 3.00199 41.8625C2.58375 41.6892 2.20376 41.4352 1.88372 41.115C1.56368 40.7947 1.30987 40.4146 1.13679 39.9963C0.963712 39.5779 0.874754 39.1296 0.875001 38.6769V4.32125ZM17.2025 16.6025H22.7881V19.4075C23.5944 17.795 25.6569 16.3438 28.7563 16.3438C34.6981 16.3438 36.1063 19.5556 36.1063 25.4488V36.365H30.0931V26.7913C30.0931 23.435 29.2869 21.5413 27.2394 21.5413C24.3988 21.5413 23.2175 23.5831 23.2175 26.7913V36.365H17.2025V16.6025ZM6.89 36.1081H12.905V16.3438H6.89V36.1063V36.1081ZM13.7656 9.8975C13.777 10.4125 13.6853 10.9246 13.4961 11.4037C13.3068 11.8828 13.0238 12.3193 12.6636 12.6876C12.3033 13.0558 11.8732 13.3484 11.3984 13.5481C10.9235 13.7479 10.4136 13.8508 9.89844 13.8508C9.3833 13.8508 8.87335 13.7479 8.39852 13.5481C7.92369 13.3484 7.49354 13.0558 7.13332 12.6876C6.77309 12.3193 6.49005 11.8828 6.3008 11.4037C6.11155 10.9246 6.01991 10.4125 6.03125 9.8975C6.05351 8.8866 6.47072 7.92461 7.19354 7.21754C7.91635 6.51047 8.8873 6.11453 9.89844 6.11453C10.9096 6.11453 11.8805 6.51047 12.6033 7.21754C13.3262 7.92461 13.7434 8.8866 13.7656 9.8975Z" fill="#2961B0"/>
</svg>
