<svg width="36" height="28" viewBox="0 0 36 28" fill="none" xmlns="http://www.w3.org/2000/svg">
<path d="M34.25 0.25H1.75C1.05859 0.25 0.5 0.808594 0.5 1.5V26.5C0.5 27.1914 1.05859 27.75 1.75 27.75H34.25C34.9414 27.75 35.5 27.1914 35.5 26.5V1.5C35.5 0.808594 34.9414 0.25 34.25 0.25ZM32.6875 4.57812V24.9375H3.3125V4.57812L2.23438 3.73828L3.76953 1.76563L5.44141 3.06641H30.5625L32.2344 1.76563L33.7695 3.73828L32.6875 4.57812ZM30.5625 3.0625L18 12.8281L5.4375 3.0625L3.76563 1.76172L2.23047 3.73438L3.30859 4.57422L16.6523 14.9492C17.0361 15.2473 17.5082 15.4092 17.9941 15.4092C18.4801 15.4092 18.9522 15.2473 19.3359 14.9492L32.6875 4.57812L33.7656 3.73828L32.2305 1.76563L30.5625 3.0625Z" fill="white"/>
</svg>
