<svg width="151" height="82" viewBox="0 0 151 82" fill="none" xmlns="http://www.w3.org/2000/svg">
<path id="&#60;/p&#62;" d="M30.8594 65.0332L0.582031 39.5176L30.8594 14.0469L37.8672 21.1445L15.5859 39.4277L37.8672 57.9355L30.8594 65.0332ZM46.2029 73.6582H35.5564L66.9119 0.525391H77.6033L46.2029 73.6582ZM115.947 40.3711C115.947 44.5638 115.348 48.1875 114.15 51.2422C112.982 54.2969 111.335 56.8424 109.209 58.8789C107.112 60.8854 104.626 62.3828 101.751 63.3711C98.8765 64.3294 95.7469 64.8086 92.3628 64.8086C91.2248 64.8086 90.0868 64.7337 88.9487 64.584C87.8107 64.4342 86.7775 64.2396 85.8491 64V81.834H74.8882V18.3594H84.3667L84.6362 25.0977C85.5646 23.9297 86.523 22.8665 87.5112 21.9082C88.5295 20.9499 89.6226 20.1413 90.7905 19.4824C91.9585 18.7936 93.2163 18.2695 94.564 17.9102C95.9116 17.5508 97.424 17.3711 99.1011 17.3711C101.796 17.3711 104.192 17.9102 106.289 18.9883C108.385 20.0664 110.137 21.6087 111.544 23.6152C112.982 25.5918 114.075 28.0026 114.824 30.8477C115.572 33.6628 115.947 36.8372 115.947 40.3711ZM104.447 40.8203C104.447 38.3047 104.267 36.1634 103.908 34.3965C103.548 32.6296 103.024 31.1771 102.335 30.0391C101.677 28.901 100.853 28.0775 99.8648 27.5684C98.9064 27.0293 97.7984 26.7598 96.5405 26.7598C94.6838 26.7598 92.9019 27.5085 91.1948 29.0059C89.5178 30.5033 87.7359 32.5397 85.8491 35.1152V55.0605C86.7176 55.39 87.7808 55.6595 89.0386 55.8691C90.3263 56.0788 91.6291 56.1836 92.9468 56.1836C94.6838 56.1836 96.256 55.8242 97.6636 55.1055C99.1011 54.3867 100.314 53.3685 101.302 52.0508C102.32 50.7331 103.099 49.1309 103.638 47.2441C104.177 45.3275 104.447 43.1862 104.447 40.8203ZM120.689 14.0469L150.966 39.5176L120.689 65.0332L113.726 57.9355L135.962 39.6074L113.726 21.1445L120.689 14.0469Z" fill="#13E034"/>
</svg>
