<svg width="41" height="41" viewBox="0 0 41 41" fill="none" xmlns="http://www.w3.org/2000/svg">
<path d="M17.9698 10.4213L12.0496 3.58798C11.3671 2.80052 10.1159 2.80402 9.32312 3.59848L4.45465 8.47543C3.00566 9.9261 2.59091 12.0802 3.42915 13.8074C8.43696 24.1754 16.7992 32.5489 27.1608 37.5709C28.8863 38.4091 31.0388 37.9944 32.4877 36.5438L37.4017 31.6213C38.198 30.8251 38.1997 29.5669 37.4052 28.8845L30.5453 22.9961C29.8278 22.3801 28.713 22.4606 27.9938 23.1816L25.6068 25.5719C25.4846 25.7 25.3237 25.7844 25.1489 25.8122C24.9741 25.84 24.795 25.8097 24.639 25.7259C20.7373 23.4792 17.5008 20.2386 15.2591 16.3342C15.1751 16.178 15.1447 15.9986 15.1726 15.8235C15.2004 15.6484 15.2849 15.4872 15.4131 15.3648L17.7931 12.9832C18.5141 12.2587 18.5928 11.1388 17.9698 10.4196V10.4213Z" stroke="white" stroke-width="4.16667" stroke-linecap="round" stroke-linejoin="round"/>
</svg>
