<svg width="203" height="48" viewBox="0 0 203 48" fill="none">
<g id="Socials">
<path id="Linkedin" fill-rule="evenodd" clip-rule="evenodd" d="M160.875 9.32125C160.875 8.40725 161.238 7.53068 161.884 6.88438C162.531 6.23809 163.407 5.875 164.321 5.875H198.675C199.128 5.87426 199.577 5.96287 199.995 6.13575C200.414 6.30863 200.794 6.56239 201.115 6.88251C201.435 7.20262 201.689 7.58279 201.863 8.00127C202.036 8.41974 202.125 8.8683 202.125 9.32125V43.675C202.125 44.128 202.037 44.5767 201.864 44.9954C201.69 45.4141 201.437 45.7945 201.116 46.115C200.796 46.4354 200.416 46.6895 199.997 46.8629C199.579 47.0362 199.13 47.1252 198.677 47.125H164.321C163.869 47.125 163.42 47.0358 163.002 46.8625C162.584 46.6892 162.204 46.4352 161.884 46.115C161.564 45.7947 161.31 45.4146 161.137 44.9963C160.964 44.5779 160.875 44.1296 160.875 43.6769V9.32125ZM177.202 21.6025H182.788V24.4075C183.594 22.795 185.657 21.3438 188.756 21.3438C194.698 21.3438 196.106 24.5556 196.106 30.4488V41.365H190.093V31.7913C190.093 28.435 189.287 26.5413 187.239 26.5413C184.399 26.5413 183.218 28.5831 183.218 31.7913V41.365H177.202V21.6025ZM166.89 41.1081H172.905V21.3438H166.89V41.1063V41.1081ZM173.766 14.8975C173.777 15.4125 173.685 15.9246 173.496 16.4037C173.307 16.8828 173.024 17.3193 172.664 17.6876C172.303 18.0558 171.873 18.3484 171.398 18.5481C170.924 18.7479 170.414 18.8508 169.898 18.8508C169.383 18.8508 168.873 18.7479 168.399 18.5481C167.924 18.3484 167.494 18.0558 167.133 17.6876C166.773 17.3193 166.49 16.8828 166.301 16.4037C166.112 15.9246 166.02 15.4125 166.031 14.8975C166.054 13.8866 166.471 12.9246 167.194 12.2175C167.916 11.5105 168.887 11.1145 169.898 11.1145C170.91 11.1145 171.881 11.5105 172.603 12.2175C173.326 12.9246 173.743 13.8866 173.766 14.8975Z" fill="#2961B0"/>
<path id="GitHub" fill-rule="evenodd" clip-rule="evenodd" d="M101.5 0C89.0687 0 79 10.0687 79 22.5C79 32.4562 85.4406 40.8656 94.3844 43.8469C95.5094 44.0438 95.9312 43.3688 95.9312 42.7781C95.9312 42.2438 95.9031 40.4719 95.9031 38.5875C90.25 39.6281 88.7875 37.2094 88.3375 35.9437C88.0844 35.2969 86.9875 33.3 86.0312 32.7656C85.2438 32.3438 84.1187 31.3031 86.0031 31.275C87.775 31.2469 89.0406 32.9062 89.4625 33.5812C91.4875 36.9844 94.7219 36.0281 96.0156 35.4375C96.2125 33.975 96.8031 32.9906 97.45 32.4281C92.4438 31.8656 87.2125 29.925 87.2125 21.3188C87.2125 18.8719 88.0844 16.8469 89.5188 15.2719C89.2937 14.7094 88.5063 12.4031 89.7437 9.30938C89.7437 9.30938 91.6281 8.71875 95.9312 11.6156C97.7312 11.1094 99.6437 10.8562 101.556 10.8562C103.469 10.8562 105.381 11.1094 107.181 11.6156C111.484 8.69063 113.369 9.30938 113.369 9.30938C114.606 12.4031 113.819 14.7094 113.594 15.2719C115.028 16.8469 115.9 18.8438 115.9 21.3188C115.9 29.9531 110.641 31.8656 105.634 32.4281C106.45 33.1312 107.153 34.4812 107.153 36.5906C107.153 39.6 107.125 42.0187 107.125 42.7781C107.125 43.3688 107.547 44.0719 108.672 43.8469C113.138 42.3389 117.02 39.4682 119.769 35.6388C122.519 31.8095 123.999 27.2143 124 22.5C124 10.0687 113.931 0 101.5 0Z" fill="#2961B0"/>
<path id="Instagram" fill-rule="evenodd" clip-rule="evenodd" d="M12.9969 1.99875C15.1962 1.8975 15.8975 1.875 21.5 1.875C27.1025 1.875 27.8038 1.89937 30.0013 1.99875C32.1988 2.09812 33.6987 2.44875 35.0112 2.95688C36.3856 3.47625 37.6325 4.28812 38.6637 5.33812C39.7137 6.3675 40.5238 7.6125 41.0413 8.98875C41.5513 10.3013 41.9 11.8013 42.0013 13.995C42.1025 16.1981 42.125 16.8994 42.125 22.5C42.125 28.1025 42.1006 28.8037 42.0013 31.0031C41.9019 33.1969 41.5513 34.6969 41.0413 36.0094C40.5237 37.3858 39.7124 38.6329 38.6637 39.6637C37.6325 40.7137 36.3856 41.5238 35.0112 42.0413C33.6987 42.5513 32.1987 42.9 30.005 43.0013C27.8037 43.1025 27.1025 43.125 21.5 43.125C15.8975 43.125 15.1962 43.1006 12.9969 43.0013C10.8031 42.9019 9.30313 42.5513 7.99063 42.0413C6.61423 41.5237 5.36716 40.7124 4.33625 39.6637C3.28696 38.6338 2.47497 37.3873 1.95688 36.0112C1.44875 34.6987 1.1 33.1987 0.99875 31.005C0.8975 28.8019 0.875 28.1006 0.875 22.5C0.875 16.8975 0.899375 16.1962 0.99875 13.9987C1.09812 11.8013 1.44875 10.3013 1.95688 8.98875C2.47573 7.61265 3.28835 6.36621 4.33812 5.33625C5.36758 4.28719 6.61339 3.47521 7.98875 2.95688C9.30125 2.44875 10.8013 2.1 12.995 1.99875H12.9969ZM29.8344 5.71125C27.6594 5.61188 27.0069 5.59125 21.5 5.59125C15.9931 5.59125 15.3406 5.61188 13.1656 5.71125C11.1537 5.80312 10.0625 6.13875 9.335 6.42188C8.37313 6.79688 7.685 7.24125 6.96313 7.96313C6.27883 8.62885 5.75221 9.43928 5.42188 10.335C5.13875 11.0625 4.80312 12.1537 4.71125 14.1656C4.61188 16.3406 4.59125 16.9931 4.59125 22.5C4.59125 28.0069 4.61188 28.6594 4.71125 30.8344C4.80312 32.8462 5.13875 33.9375 5.42188 34.665C5.75187 35.5594 6.27875 36.3713 6.96313 37.0369C7.62875 37.7212 8.44063 38.2481 9.335 38.5781C10.0625 38.8613 11.1537 39.1969 13.1656 39.2887C15.3406 39.3881 15.9913 39.4087 21.5 39.4087C27.0087 39.4087 27.6594 39.3881 29.8344 39.2887C31.8462 39.1969 32.9375 38.8613 33.665 38.5781C34.6269 38.2031 35.315 37.7588 36.0369 37.0369C36.7212 36.3713 37.2481 35.5594 37.5781 34.665C37.8613 33.9375 38.1969 32.8462 38.2887 30.8344C38.3881 28.6594 38.4087 28.0069 38.4087 22.5C38.4087 16.9931 38.3881 16.3406 38.2887 14.1656C38.1969 12.1537 37.8613 11.0625 37.5781 10.335C37.2031 9.37313 36.7588 8.685 36.0369 7.96313C35.3711 7.27888 34.5607 6.75227 33.665 6.42188C32.9375 6.13875 31.8462 5.80312 29.8344 5.71125ZM18.8656 28.8581C20.3369 29.4706 21.9751 29.5532 23.5005 29.092C25.0259 28.6307 26.3439 27.6542 27.2293 26.3292C28.1147 25.0042 28.5126 23.4129 28.3551 21.8271C28.1976 20.2413 27.4944 18.7593 26.3656 17.6344C25.6461 16.9153 24.776 16.3646 23.8181 16.0222C22.8602 15.6797 21.8383 15.5538 20.8259 15.6537C19.8136 15.7535 18.8359 16.0766 17.9634 16.5996C17.0909 17.1227 16.3451 17.8326 15.7799 18.6785C15.2147 19.5243 14.8441 20.4849 14.6947 21.4912C14.5453 22.4974 14.6209 23.5243 14.916 24.4978C15.2111 25.4714 15.7184 26.3674 16.4014 27.1214C17.0843 27.8753 17.9259 28.4685 18.8656 28.8581ZM14.0037 15.0037C14.9882 14.0193 16.1568 13.2384 17.4431 12.7057C18.7293 12.1729 20.1078 11.8987 21.5 11.8987C22.8922 11.8987 24.2707 12.1729 25.5569 12.7057C26.8431 13.2384 28.0118 14.0193 28.9963 15.0037C29.9807 15.9882 30.7616 17.1568 31.2943 18.4431C31.8271 19.7293 32.1013 21.1078 32.1013 22.5C32.1013 23.8922 31.8271 25.2707 31.2943 26.5569C30.7616 27.8431 29.9807 29.0118 28.9963 29.9963C27.0081 31.9844 24.3116 33.1013 21.5 33.1013C18.6884 33.1013 15.9919 31.9844 14.0037 29.9963C12.0156 28.0081 10.8987 25.3116 10.8987 22.5C10.8987 19.6884 12.0156 16.9919 14.0037 15.0037ZM34.4525 13.4775C34.6964 13.2474 34.8917 12.9707 35.0268 12.6637C35.1619 12.3568 35.234 12.0258 35.2389 11.6905C35.2438 11.3552 35.1814 11.0223 35.0553 10.7115C34.9292 10.4008 34.7421 10.1185 34.5049 9.88132C34.2678 9.64419 33.9855 9.45705 33.6747 9.33097C33.364 9.2049 33.0311 9.14245 32.6958 9.14734C32.3604 9.15223 32.0295 9.22435 31.7225 9.35943C31.4156 9.49451 31.1389 9.6898 30.9087 9.93375C30.4612 10.4082 30.2162 11.0384 30.2257 11.6905C30.2352 12.3426 30.4985 12.9654 30.9597 13.4266C31.4209 13.8878 32.0436 14.1511 32.6958 14.1606C33.3479 14.1701 33.9781 13.925 34.4525 13.4775Z" fill="#2961B0"/>
</g>
</svg>
