<svg width="1920" height="406" viewBox="0 0 1920 406" fill="none" xmlns="http://www.w3.org/2000/svg">
<g id="Wave">
<path id="Top-wave" d="M0 47.9999L64 34.3999C128 20.7999 256 -6.40006 384 2.69494C512 11.4499 640 57.3499 768 70.6949C896 84.5499 1024 65.8499 1152 47.9999C1280 30.1499 1408 11.4499 1536 16.2949C1664 20.7999 1792 47.9999 1856 61.5999L1920 75.1999V184H1856C1792 184 1664 184 1536 184C1408 184 1280 184 1152 184C1024 184 896 184 768 184C640 184 512 184 384 184C256 184 128 184 64 184H0V47.9999Z" fill="#2961B0"/>
<rect id="Bottom-wave" y="184" width="1920" height="222" fill="#2961B0"/>
</g>
</svg>
